0
SECTION
2
HEADER
9
$INSUNITS
70
4
9
$ACADVER
1
AC1014
9
$HANDSEED
5
FFFF
0
ENDSEC
0
SECTION
2
TABLES
0
TABLE
2
VPORT
5
8
100
AcDbSymbolTable
0
ENDTAB
0
TABLE
2
LTYPE
5
5
100
AcDbSymbolTable
0
LTYPE
5
14
100
AcDbSymbolTableRecord
100
AcDbLinetypeTableRecord
2
BYBLOCK
70
0
0
LTYPE
5
15
100
AcDbSymbolTableRecord
100
AcDbLinetypeTableRecord
2
BYLAYER
70
0
0
ENDTAB
0
TABLE
2
LAYER
5
2
100
AcDbSymbolTable
70
2
0
LAYER
5
50
100
AcDbSymbolTableRecord
100
AcDbLayerTableRecord
2
0
70
0
6
CONTINUOUS
0
ENDTAB
0
TABLE
2
STYLE
5
3
100
AcDbSymbolTable
70
1
0
STYLE
5
11
100
AcDbSymbolTableRecord
100
AcDbTextStyleTableRecord
2
STANDARD
70
0
0
ENDTAB
0
TABLE
2
VIEW
5
6
100
AcDbSymbolTable
70
0
0
ENDTAB
0
TABLE
2
UCS
5
7
100
AcDbSymbolTable
70
0
0
ENDTAB
0
TABLE
2
APPID
5
9
100
AcDbSymbolTable
70
2
0
APPID
5
12
100
AcDbSymbolTableRecord
100
AcDbRegAppTableRecord
2
ACAD
70
0
0
ENDTAB
0
TABLE
2
DIMSTYLE
5
A
100
AcDbSymbolTable
70
1
0
ENDTAB
0
TABLE
2
BLOCK_RECORD
5
1
100
AcDbSymbolTable
70
1
0
BLOCK_RECORD
5
1F
100
AcDbSymbolTableRecord
100
AcDbBlockTableRecord
2
*MODEL_SPACE
0
BLOCK_RECORD
5
1B
100
AcDbSymbolTableRecord
100
AcDbBlockTableRecord
2
*PAPER_SPACE
0
ENDTAB
0
ENDSEC
0
SECTION
2
BLOCKS
0
BLOCK
5
20
100
AcDbEntity
100
AcDbBlockBegin
2
*MODEL_SPACE
0
ENDBLK
5
21
100
AcDbEntity
100
AcDbBlockEnd
0
BLOCK
5
1C
100
AcDbEntity
100
AcDbBlockBegin
2
*PAPER_SPACE
0
ENDBLK
5
1D
100
AcDbEntity
100
AcDbBlockEnd
0
ENDSEC
0
SECTION
2
ENTITIES
0
LWPOLYLINE
5
100
100
AcDbEntity
8
0
100
AcDbPolyline
90
16
70
1
43
0.0
10
4.0000000894069672
20
5.000000074505806
10
3.8184840897211219
20
5.000000074505806
10
3.8185840900166559
20
2.5223766771082632
10
4.3240827000452651
20
2.5223970797289552
10
4.3241090179459398
20
1.8703405419718315
10
4.0000000894069672
20
1.8703274604887163
10
4.0000772049542119
20
-0.040299734521763719
10
3.9941382924461393
20
-1.9249584258687802
10
4.128742788561742
20
-1.9253825898455514
42
0.2722864898116471
10
5.8799670213302013
20
-0.90276020879999508
10
6.0778158955482731
20
-0.54953507633184351
10
5.7152506638892708
20
1.8137348299957647
10
5.5595402433728802
20
1.8137348299957652
10
5.5595402433728802
20
2.5223839993080666
10
6.0000000894069672
20
2.5223839993080666
10
6.0000000894069672
20
3.0000000745058064
42
0.41421356237309481
0
LINE
5
101
100
AcDbEntity
8
0
100
AcDbLine
10
5.5595402433728802
20
1.8137348299957652
30
0
11
5.7152506638892708
21
1.8137348299957647
31
0
0
LWPOLYLINE
5
102
100
AcDbEntity
8
0
100
AcDbPolyline
90
4
70
1
43
0.0
10
2.9170427202882365
20
0.77215836713512287
10
1.2354533874161922
20
0.77215836713512287
10
1.2354533874161922
20
-0.36034057132972475
10
2.9170427202882365
20
-0.36034057132972475
0
LWPOLYLINE
5
103
100
AcDbEntity
8
0
100
AcDbPolyline
90
4
70
1
43
0.0
10
-0.31079595759101686
20
0.86387593891053549
10
-2.0934071286774447
20
0.86387593891053549
10
-2.0934071286774447
20
-0.42704425989366135
10
-0.31079595759101686
20
-0.42704425989366135
0
LWPOLYLINE
5
104
100
AcDbEntity
8
0
100
AcDbPolyline
90
8
70
1
43
0.0
10
2.5718164003622626
20
5.6578998007757662
10
-1.7213084179909057
20
5.6578998007757644
42
0.41421356237309537
10
-2.7213084179909064
20
4.6578998007757644
10
-2.7213084179909064
20
2.02138026971507
42
0.41421356237309503
10
-1.7213084179909066
20
1.0213802697150702
10
2.5718164003622626
20
1.02138026971507
42
0.41421356237309503
10
3.5718164003622626
20
2.02138026971507
10
3.5718164003622626
20
4.6578998007757644
42
0.41421356237309503
0
LWPOLYLINE
5
105
100
AcDbEntity
8
0
100
AcDbPolyline
90
16
70
1
43
0.0
10
-3.4212983348374699
20
1.8210855757148097
10
-3.4212734496629711
20
2.4376446594186247
10
-2.907988817506121
20
2.4376239425433468
10
-2.9078853964733908
20
5.000000074505806
10
-3.1751151976206708
20
5.0000556823772424
42
0.41812551755572303
10
-5.2945677931654824
20
2.9987405894415642
10
-5.2945677931654824
20
2.4189561158599533
10
-4.6866532786915585
20
2.4189561158599533
10
-4.6866532786915585
20
1.8177699494413617
10
-4.8738652079714138
20
1.8177699494413617
10
-5.2609127544329324
20
-0.70508039306123582
10
-5.2397279842703455
20
-0.7429924198789597
42
0.27172396875621574
10
-3.4937334612192874
20
-1.7673975161976632
10
-3.176364497796178
20
-1.7673847069981696
10
-3.1764379086203793
20
0.051489079150858208
10
-3.1763664856655276
20
1.8210756899277583
0
LWPOLYLINE
5
106
100
AcDbEntity
8
0
100
AcDbPolyline
90
4
70
1
43
0.0
10
0.89227189091169556
20
-2.5567021489585171
10
1.2354533874161922
20
-0.73784021748467321
10
3.1229516181909389
20
-0.70352206783422355
10
3.5004512643458874
20
-2.5567021489585171
0
LINE
5
107
100
AcDbEntity
8
0
100
AcDbLine
10
-3.176364497796178
20
-1.7673847069981696
30
0
11
-3.4937335804822718
21
-1.767397516202478
31
0
0
LWPOLYLINE
5
108
100
AcDbEntity
8
0
100
AcDbPolyline
90
4
70
1
43
0.0
10
-2.8660271738660748
20
-2.5920777212548836
10
0.008691923022641837
20
-2.5743587495389124
10
-0.30930044314307764
20
-0.64585781728573655
10
-2.3584659053355881
20
-0.6088319977418275
0
LWPOLYLINE
5
109
100
AcDbEntity
8
0
100
AcDbPolyline
90
3
70
1
43
0.0
10
2.9999999329447746
20
5.8999998681247234
10
-2.0999999530613431
20
5.8999998681247234
42
-0.43285276157758018
10
0.44999998994171608
20
8.4326021262934621
42
-0.41705059813857709
0
LWPOLYLINE
5
110
100
AcDbEntity
8
0
100
AcDbPolyline
90
5
70
1
43
0.0
10
0.0086919230226417676
20
-2.718571733334556
10
-2.773541729019481
20
-2.7357206504030489
10
-3.2883234040572527
20
-3.0860495430306178
10
-3.2859330329147021
20
-3.4738624298218963
10
0.013221985750021833
20
-3.4535273527266792
0
LWPOLYLINE
5
111
100
AcDbEntity
8
0
100
AcDbPolyline
90
6
70
1
43
0.0
10
0.86016164262274852
20
-3.5000000521540642
10
0.86016164262274875
20
-2.7268864648899385
10
3.6560256390039725
20
-2.6771368930634276
10
4.1246956977209432
20
-3.1134432585220013
10
4.1246956977209432
20
-3.5000000521540642
10
4.0000000596046448
20
-3.5000000521540642
0
CIRCLE
5
112
100
AcDbEntity
8
0
100
AcDbCircle
10
-0.96731187847803224
20
6.7586477569558863
30
0
40
0.55000000000000004
0
CIRCLE
5
113
100
AcDbEntity
8
0
100
AcDbCircle
10
1.7889888208278544
20
6.7281853443691189
30
0
40
0.55000000000000004
0
ENDSEC
0
SECTION
2
OBJECTS
0
DICTIONARY
5
C
100
AcDbDictionary
3
ACAD_GROUP
350
D
3
ACAD_MLINESTYLE
350
17
0
DICTIONARY
5
D
100
AcDbDictionary
0
DICTIONARY
5
1A
330
C
100
AcDbDictionary
0
DICTIONARY
5
17
100
AcDbDictionary
0
ENDSEC
0
EOF
